<?xml version="1.0" encoding="UTF-8" standalone="no"?>
<!DOCTYPE svg PUBLIC "-//W3C//DTD SVG 1.1//EN" "http://www.w3.org/Graphics/SVG/1.1/DTD/svg11.dtd">
<svg xmlns="http://www.w3.org/2000/svg" version="1.1" viewBox="0.00 0.00 500.00 500.00">
<path fill="#000000" d="
  M 301.14 277.00
  Q 301.26 276.91 301.35 276.79
  Q 301.43 276.70 301.44 276.55
  Q 304.63 240.91 308.31 204.35
  Q 308.37 203.75 308.98 203.75
  L 337.62 203.75
  A 0.67 0.66 -2.3 0 1 338.29 204.36
  L 346.60 291.33
  A 0.62 0.61 87.4 0 1 345.99 292.00
  L 330.45 292.00
  Q 329.90 292.00 329.85 291.45
  L 328.78 278.48
  Q 328.72 277.75 327.99 277.75
  L 319.00 277.75
  A 1.15 1.14 -87.8 0 0 317.86 278.81
  L 316.99 291.40
  Q 316.95 292.00 316.35 292.00
  L 294.23 292.00
  A 0.81 0.80 -10.7 0 1 293.48 291.49
  L 291.00 285.26
  Q 290.80 284.75 290.47 285.19
  Q 283.06 295.22 270.71 291.93
  C 259.80 289.02 257.22 277.26 257.23 267.50
  Q 257.24 247.00 257.25 226.50
  Q 257.26 219.48 260.10 213.08
  C 264.75 202.62 279.74 201.03 288.94 204.57
  C 299.81 208.76 301.15 223.20 300.97 233.27
  A 0.49 0.49 0.0 0 1 300.48 233.75
  L 284.50 233.75
  A 0.78 0.78 0.0 0 1 283.72 232.94
  C 283.84 229.33 285.20 218.98 279.42 219.18
  C 275.58 219.31 274.79 222.26 274.77 225.70
  Q 274.66 257.95 274.79 271.43
  C 274.85 277.28 282.50 278.62 283.52 272.99
  Q 284.50 267.56 283.83 256.33
  Q 283.80 255.75 283.22 255.75
  L 279.75 255.75
  Q 279.25 255.75 279.25 255.25
  L 279.25 241.22
  Q 279.25 240.76 279.72 240.75
  L 299.96 240.43
  A 0.78 0.78 0.0 0 1 300.75 241.21
  L 300.75 276.81
  Q 300.75 277.31 301.14 277.00
  Z
  M 326.33 263.70
  A 0.96 0.94 87.4 0 0 327.26 262.67
  L 323.55 219.15
  Q 323.51 218.76 323.12 218.73
  Q 322.89 218.72 322.71 218.89
  Q 322.56 219.02 322.54 219.30
  Q 321.00 241.16 319.34 263.07
  Q 319.29 263.78 320.00 263.77
  L 326.33 263.70
  Z"
/>
<path fill="#000000" d="
  M 212.50 279.56
  L 212.50 204.25
  Q 212.50 203.75 213.00 203.75
  L 229.93 203.75
  A 0.82 0.81 -5.0 0 1 230.74 204.42
  L 238.24 243.75
  A 0.28 0.28 0.0 0 0 238.80 243.69
  L 238.73 204.26
  Q 238.73 203.75 239.24 203.75
  L 255.25 203.75
  Q 255.75 203.75 255.75 204.25
  L 255.75 291.50
  A 0.50 0.50 0.0 0 1 255.25 292.00
  L 239.23 292.00
  Q 238.51 292.00 238.37 291.30
  Q 234.23 270.54 230.13 249.71
  Q 230.08 249.43 229.93 249.32
  Q 229.80 249.22 229.68 249.22
  Q 229.59 249.22 229.59 249.31
  L 229.82 291.34
  Q 229.82 292.00 229.16 292.00
  L 196.45 292.00
  Q 195.89 292.00 195.85 291.44
  L 194.76 278.35
  Q 194.71 277.75 194.10 277.75
  L 184.60 277.75
  A 0.69 0.68 -87.7 0 0 183.92 278.39
  L 182.98 291.41
  Q 182.94 292.00 182.34 292.00
  L 149.79 292.00
  Q 149.32 292.00 149.32 291.53
  Q 149.10 270.40 149.27 258.52
  C 149.34 254.18 148.20 251.12 143.08 251.80
  Q 142.50 251.88 142.50 252.46
  L 142.50 291.50
  A 0.50 0.50 0.0 0 1 142.00 292.00
  L 125.22 292.00
  A 0.48 0.47 -0.0 0 1 124.74 291.53
  L 124.75 204.26
  Q 124.75 203.80 125.22 203.79
  Q 145.84 203.64 152.24 203.77
  Q 164.59 204.03 166.77 216.24
  C 167.97 222.93 169.04 235.00 165.28 240.79
  Q 163.46 243.59 159.86 245.77
  A 0.14 0.14 0.0 0 0 159.87 246.02
  Q 167.04 249.33 166.65 257.76
  Q 166.40 262.93 166.51 278.34
  Q 166.52 278.86 166.94 278.56
  Q 167.20 278.38 167.23 278.00
  Q 170.61 241.22 174.33 204.14
  Q 174.37 203.75 174.76 203.75
  L 203.75 203.75
  A 0.56 0.55 87.1 0 1 204.30 204.25
  L 211.43 279.61
  Q 212.50 290.95 212.50 279.56
  Z
  M 185.63 263.72
  L 192.48 263.76
  Q 193.39 263.77 193.30 262.87
  Q 191.33 240.85 189.59 219.19
  Q 189.54 218.57 188.93 218.78
  Q 188.58 218.90 188.55 219.27
  L 185.33 263.39
  Q 185.31 263.72 185.63 263.72
  Z
  M 142.69 220.60
  L 142.71 235.80
  A 0.67 0.67 0.0 0 0 143.38 236.47
  L 146.35 236.46
  A 4.57 4.12 89.9 0 0 150.47 231.88
  L 150.45 224.48
  A 4.57 4.12 89.9 0 0 146.33 219.92
  L 143.36 219.93
  A 0.67 0.67 0.0 0 0 142.69 220.60
  Z"
/>
<circle fill="#000000" cx="369.47" cy="277.68" r="12.97"/>
</svg>
